<?xml version="1.0" standalone="no"?>
<!DOCTYPE svg PUBLIC "-//W3C//DTD SVG 20010904//EN"
 "http://www.w3.org/TR/2001/REC-SVG-20010904/DTD/svg10.dtd">
<svg version="1.0" xmlns="http://www.w3.org/2000/svg"
 width="256.000000pt" height="256.000000pt" viewBox="0 0 256.000000 256.000000"
 preserveAspectRatio="xMidYMid meet">

<g transform="translate(0.000000,256.000000) scale(0.100000,-0.100000)"
fill="#000000" stroke="none">
<path d="M1165 2394 c-88 -7 -248 -36 -305 -55 -76 -26 -108 -24 -176 11 -32
16 -59 30 -60 30 -8 1 19 -106 32 -125 21 -32 9 -45 -45 -45 l-34 0 6 -50 c8
-62 31 -104 72 -126 l31 -16 -13 -85 c-16 -110 -17 -211 -4 -298 6 -38 11 -77
11 -85 1 -12 3 -11 11 3 16 27 27 20 32 -20 l4 -38 1 41 c2 34 6 43 25 48 39
10 48 7 45 -16 -2 -13 2 -23 9 -23 20 0 27 -14 9 -21 -22 -8 -20 -26 5 -53 14
-15 18 -26 12 -32 -15 -15 -61 0 -83 28 -24 31 -26 22 -3 -13 9 -14 26 -30 37
-34 20 -8 20 -8 -4 -18 -14 -6 -20 -11 -13 -11 18 -1 63 21 63 31 0 4 3 8 8 8
4 0 6 -20 4 -44 -3 -37 1 -49 25 -76 19 -21 36 -31 48 -28 17 3 16 6 -10 20
-59 31 -63 56 -32 176 29 114 33 148 17 172 -8 11 -9 9 -5 -11 6 -26 6 -26
-72 -32 -42 -3 -79 -5 -80 -3 -1 1 1 12 4 25 4 14 22 30 47 42 35 17 37 19 11
14 -16 -3 -42 -10 -57 -16 -23 -9 -26 -15 -21 -44 5 -29 -10 -56 -23 -42 -8 8
-22 119 -17 137 5 20 53 49 107 65 45 13 66 42 58 80 -6 34 -35 32 -108 -5
-32 -16 -61 -30 -62 -30 -4 0 3 51 20 148 9 57 15 67 50 92 82 59 258 94 409
80 139 -13 183 -40 203 -122 8 -36 49 -83 86 -98 l30 -12 0 -130 0 -129 -22 6
c-69 20 -96 32 -121 52 -29 23 -70 37 -144 49 -43 7 -233 -6 -200 -14 13 -2
16 -10 12 -25 -5 -19 -4 -20 7 -6 22 26 86 42 152 37 123 -11 196 -49 196
-105 0 -15 4 -23 8 -17 6 9 40 11 95 6 12 -1 17 -11 17 -33 0 -47 21 -120 34
-116 6 2 19 30 29 63 41 138 98 217 165 229 87 14 143 -53 145 -173 1 -56 -4
-79 -26 -124 -48 -99 -138 -157 -216 -142 -29 6 -31 5 -23 -16 5 -13 3 -49 -6
-89 -10 -45 -12 -105 -9 -193 l5 -126 -52 -49 c-60 -59 -87 -78 -181 -128 -86
-45 -134 -95 -159 -166 -23 -64 -25 -60 -46 94 -14 104 -9 133 24 131 13 -2
16 11 16 75 l0 78 79 52 c115 75 116 86 2 28 -89 -45 -107 -51 -180 -55 -72
-4 -86 -2 -135 22 -67 33 -146 117 -187 199 -25 48 -31 74 -32 128 -1 38 -5
69 -9 69 -5 0 -9 26 -10 58 l-1 57 -6 -60 c-3 -33 -3 -62 0 -65 3 -3 9 -34 12
-69 11 -127 113 -273 232 -332 58 -28 71 -31 142 -28 l78 4 3 -30 c2 -27 -4
-33 -49 -60 -28 -16 -62 -46 -74 -65 -18 -28 -39 -42 -106 -69 -217 -87 -274
-148 -387 -417 -47 -112 -82 -216 -97 -292 l-7 -32 946 0 946 0 -5 23 c-2 12
-16 76 -31 142 -30 137 -71 252 -114 316 -30 47 -253 233 -378 316 -67 45 -74
54 -112 131 -39 81 -51 94 -93 96 -20 1 -22 7 -25 66 -3 62 -1 67 37 118 22
29 43 68 47 87 5 27 13 36 39 45 68 22 133 114 156 220 14 68 -3 153 -42 202
l-30 38 17 57 c11 39 15 78 12 125 -5 58 -3 68 11 68 9 0 33 5 54 11 33 9 38
14 35 36 -5 40 -47 65 -112 67 l-56 1 6 50 c11 100 -32 138 -70 61 l-19 -38
-15 24 c-17 28 -105 86 -170 111 -45 18 -207 29 -307 21z"/>
<path d="M1013 1918 c-27 -13 -30 -44 -8 -75 14 -20 22 -21 83 -16 55 4 82 0
147 -21 89 -29 105 -31 105 -15 0 19 -83 90 -135 115 -55 26 -151 32 -192 12z"/>
<path d="M840 1753 c-38 -5 -67 -23 -35 -23 10 0 30 -10 43 -22 l25 -23 -12
23 c-16 30 -11 35 47 43 46 6 46 6 7 6 -22 0 -56 -2 -75 -4z"/>
<path d="M733 1733 c9 -2 25 -2 35 0 9 3 1 5 -18 5 -19 0 -27 -2 -17 -5z"/>
<path d="M1734 1730 c-45 -17 -144 -163 -144 -212 0 -16 6 -17 39 -12 34 5 40
3 46 -15 3 -11 3 -26 -1 -32 -4 -8 -3 -9 4 -5 17 10 15 51 -3 66 -9 7 -27 10
-45 6 -17 -3 -30 -2 -30 2 0 4 13 30 30 58 31 55 83 114 115 132 25 13 17 22
-11 12z"/>
<path d="M1056 1697 c-22 -7 -41 -18 -44 -26 -3 -8 0 -11 7 -7 7 5 11 -2 11
-19 0 -19 -7 -28 -27 -36 -43 -17 -11 -22 68 -10 77 12 93 8 86 -20 -4 -16 0
-19 30 -19 20 0 32 -4 28 -10 -3 -5 -17 -10 -31 -10 -28 0 -32 -24 -9 -57 14
-20 14 -22 -4 -28 -28 -9 -104 11 -118 31 -7 10 -13 13 -13 7 0 -40 112 -67
184 -43 52 17 89 65 82 106 -5 22 -2 34 6 37 30 10 -75 27 -169 27 -95 0 -103
1 -103 19 0 34 28 51 84 51 28 0 56 -3 62 -7 5 -5 1 0 -9 10 -22 19 -64 21
-121 4z"/>
<path d="M575 1670 c-10 -11 -16 -22 -14 -24 2 -2 12 7 22 20 22 29 17 32 -8
4z"/>
<path d="M910 1666 c0 -2 13 -6 29 -8 17 -2 28 -1 25 4 -5 8 -54 12 -54 4z"/>
<path d="M962 1570 c0 -19 2 -27 5 -17 2 9 2 25 0 35 -3 9 -5 1 -5 -18z"/>
<path d="M1031 1524 c0 -11 3 -14 6 -6 3 7 2 16 -1 19 -3 4 -6 -2 -5 -13z"/>
<path d="M961 1504 c0 -11 3 -14 6 -6 3 7 2 16 -1 19 -3 4 -6 -2 -5 -13z"/>
<path d="M622 1428 c16 -16 34 -28 41 -28 6 0 3 6 -8 12 -11 6 -29 18 -40 27
-12 9 -8 4 7 -11z"/>
<path d="M985 1439 c6 -15 54 -53 59 -47 2 1 -12 16 -31 32 -18 15 -31 22 -28
15z"/>
<path d="M1309 1433 c-13 -16 -12 -17 4 -4 9 7 17 15 17 17 0 8 -8 3 -21 -13z"/>
<path d="M1270 1410 c-9 -6 -10 -10 -3 -10 6 0 15 5 18 10 8 12 4 12 -15 0z"/>
<path d="M940 1350 c0 -5 6 -10 13 -10 6 0 23 -3 37 -6 17 -5 22 -3 15 3 -15
15 -65 25 -65 13z"/>
<path d="M1115 1274 l-40 -13 38 5 c20 3 37 1 37 -4 0 -17 -118 -121 -145
-128 -23 -6 -32 -2 -47 16 -10 12 -18 28 -18 35 0 7 30 27 68 44 37 17 56 29
42 25 -14 -4 -54 -20 -90 -37 -36 -17 -73 -30 -82 -29 -10 1 -18 -3 -18 -8 0
-6 5 -10 11 -10 6 0 24 -11 41 -25 46 -39 71 -41 122 -11 59 35 162 159 129
155 -5 0 -26 -7 -48 -15z"/>
<path d="M1021 1075 c-26 -9 -30 -13 -16 -18 27 -11 42 -8 49 9 8 22 7 22 -33
9z"/>
<path d="M1152 760 c0 -19 2 -27 5 -17 2 9 2 25 0 35 -3 9 -5 1 -5 -18z"/>
</g>
</svg>
